Coordinates
version=1
nRows=17
nColumns=36
inDegrees=yes

Units are S.I. units (second, meters, Newtons, ...)
If the header above contains a line with 'inDegrees', this indicates whether rotational values are in degrees (yes) or radians (no).

endheader
time	pelvis_tilt	pelvis_list	pelvis_rotation	pelvis_tx	pelvis_ty	pelvis_tz	hip_flexion_r	hip_adduction_r	hip_rotation_r	knee_angle_r	knee_angle_r_beta	ankle_angle_r	subtalar_angle_r	mtp_angle_r	hip_flexion_l	hip_adduction_l	hip_rotation_l	knee_angle_l	knee_angle_l_beta	ankle_angle_l	subtalar_angle_l	mtp_angle_l	lumbar_extension	lumbar_bending	lumbar_rotation	arm_flex_r	arm_add_r	arm_rot_r	elbow_flex_r	pro_sup_r	arm_flex_l	arm_add_l	arm_rot_l	elbow_flex_l	pro_sup_l
      5.40000000	     33.32798784	     -0.50876241	      1.61518901	     -0.57582110	      0.58718437	     -0.60609591	     54.88043519	     -4.69360464	      4.20627031	     98.99829027	      1.72784612	     20.25473435	     -6.53254650	     -7.49999987	     55.47638157	     -2.85001564	      5.26500556	     98.33875324	      1.71633503	     15.77172433	    -10.97463472	     -7.49999987	    -48.69271469	     -0.32243191	     -1.64067602	      2.86841570	    -14.37677529	     11.74534442	    131.42388279	    100.32102961	      5.68784872	    -10.83122626	      9.05096048	    130.75834250	     87.59855554
      5.41000000	     32.86343801	     -0.53005868	      1.61121680	     -0.57391618	      0.58730874	     -0.60595392	     55.31387258	     -4.69499332	      4.09009117	     99.18603494	      1.73112288	     20.25715023	     -6.64282348	     -7.49999987	     55.89010951	     -2.89436173	      5.28434402	     98.39268302	      1.71727628	     15.76297081	    -10.96735654	     -7.49999987	    -48.99488515	     -0.24674105	     -1.64478242	      3.49933709	    -14.48273443	     11.77669092	    131.45129797	    100.36893137	      6.27521983	    -10.92865849	      9.10063410	    130.77255090	     87.63228250
      5.42000000	     31.89898596	     -0.34504354	      1.58985494	     -0.57138406	      0.58651282	     -0.60584339	     56.43428014	     -4.85257900	      4.19897849	     99.49131833	      1.73645108	     20.08834067	     -7.00856159	     -7.49999987	     56.84422973	     -2.70403572	      5.16414080	     98.47033826	      1.71863162	     15.64460353	    -10.94786289	     -7.49999987	    -48.72959423	     -0.34825425	     -1.82192650	      4.04564110	    -14.69789339	     12.17865264	    131.59774127	    100.55217586	      6.73636760	    -11.14277413	      9.40012886	    130.72321417	     87.74638820
      5.43000000	     31.13951476	     -0.23311039	      1.50153575	     -0.56907439	      0.58613401	     -0.60564951	     57.22375417	     -4.85352816	      4.39778894	     99.59501471	      1.73826093	     19.86475983	     -7.08594605	     -7.49999987	     57.51905510	     -2.61727924	      5.08848758	     98.51720219	      1.71944955	     15.57475467	    -11.04337453	     -7.49999987	    -48.74777255	     -0.45352841	     -1.92476135	      4.72761332	    -14.82039421	     12.26611399	    131.72987413	    100.72335961	      7.29623271	    -11.23394515	      9.39246543	    130.70823514	     87.86180184
      5.44000000	     30.59759902	     -0.25848362	      1.42185815	     -0.56698682	      0.58621357	     -0.60559487	     57.68263999	     -4.76637216	      4.46954950	     99.60316240	      1.73840313	     19.85299567	     -7.08587835	     -7.49999987	     57.96278194	     -2.65668094	      5.10416367	     98.56671389	      1.72031369	     15.56838901	    -11.05868468	     -7.49999987	    -49.07486299	     -0.40439804	     -1.89729024	      5.44244693	    -14.97207696	     12.20363981	    131.74767485	    100.76128183	      7.98774581	    -11.29490435	      9.32821075	    130.74900266	     87.89814433
      5.45000000	     29.72212499	     -0.31366804	      1.27375797	     -0.56441513	      0.58583014	     -0.60532557	     58.59513757	     -4.59435374	      4.53107444	     99.71942619	      1.74043232	     19.77458900	     -7.19378411	     -7.49999987	     58.83307676	     -2.82655109	      5.08903429	     98.71181620	      1.72284620	     15.42862626	    -10.95997124	     -7.49999987	    -49.04003220	     -0.40531289	     -1.78109441	      6.10090877	    -15.32938164	     12.60160853	    131.50511616	    100.88010649	      8.59373420	    -11.42406474	      9.51696192	    130.72214796	     88.02588339
      5.46000000	     29.19900639	     -0.25763092	      1.22125257	     -0.56219209	      0.58614085	     -0.60496208	     59.06897780	     -4.62283715	      4.55055697	     99.81760749	      1.74214590	     19.79244338	     -7.27214753	     -7.49999987	     59.22813101	     -2.86567521	      5.02353558	     98.73890332	      1.72331896	     15.44589965	    -10.95195776	     -7.49999987	    -49.49582299	     -0.43718272	     -1.75816683	      6.85063423	    -15.45382870	     12.54795441	    131.45692473	    100.89966199	      9.40479932	    -11.51085054	      9.44438950	    130.78464592	     88.05929223
      5.47000000	     28.34346079	     -0.11868262	      1.11804125	     -0.55954758	      0.58595589	     -0.60444171	     59.94368189	     -4.61853351	      4.71718555	     99.92882642	      1.74408704	     19.57770502	     -7.39385325	     -7.49999987	     59.98576949	     -2.88783707	      4.85938799	     98.79530068	      1.72430328	     15.42513511	    -10.93435948	     -7.49999987	    -49.57028403	     -0.59729088	     -1.85435930	      7.67860112	    -15.67344251	     12.93418048	    131.34046169	    101.03000080	     10.17006382	    -11.87541197	      9.79749997	    130.81569334	     88.20063907
      5.48000000	     27.55105249	     -0.16761039	      1.12076199	     -0.55701493	      0.58585714	     -0.60417300	     60.63174316	     -4.57805234	      4.69071923	     99.94523646	      1.74437345	     19.29720944	     -7.25664919	     -7.49999987	     60.75078828	     -2.98945458	      4.84567911	     98.87947514	      1.72577240	     15.39809136	    -10.88955541	     -7.49999987	    -49.77752329	     -0.51965354	     -1.83838957	      8.58385412	    -15.86722876	     13.10757275	    131.32171283	    101.12858476	     10.99673506	    -12.15891441	      9.92734367	    130.88475993	     88.31444278
      5.49000000	     26.90633334	     -0.15242281	      1.11789586	     -0.55471170	      0.58598906	     -0.60412867	     61.15198258	     -4.61323718	      4.71435245	     99.91957628	      1.74392559	     19.24045064	     -7.20913811	     -7.49999987	     61.30936762	     -3.00379726	      4.77563440	     98.93997754	      1.72682837	     15.41757274	    -10.86805945	     -7.49999987	    -50.21423818	     -0.44293261	     -1.84168186	      9.51505750	    -16.03745617	     13.01021790	    131.35040742	    101.14448067	     11.99590722	    -12.31236862	      9.82656180	    130.97758738	     88.34535094
      5.50000000	     26.12196261	     -0.10927810	      1.13544265	     -0.55239457	      0.58592197	     -0.60406826	     61.83648392	     -4.67045152	      4.84238987	     99.80290314	      1.74188926	     19.13158586	     -7.10781070	     -7.49999987	     62.01795340	     -2.93768133	      4.76566338	     98.96714289	      1.72730249	     15.44065124	    -10.85800445	     -7.49999987	    -50.54538806	     -0.40379666	     -1.88535115	     10.58145798	    -16.27600020	     13.00385176	    131.41004362	    101.17045852	     13.03945446	    -12.54592511	      9.87284908	    131.08291031	     88.38744220
      5.51000000	     25.01158772	     -0.12663327	      1.20019048	     -0.54972893	      0.58549865	     -0.60403443	     62.88023056	     -4.71752573	      4.94668237	     99.67372497	      1.73963468	     18.81033560	     -6.71682632	     -7.49999987	     63.11221382	     -2.84013564	      4.84183961	     99.01222669	      1.72808936	     15.38952099	    -10.92057903	     -7.49999987	    -50.53560715	     -0.29365245	     -1.97419630	     11.71007997	    -16.68473626	     13.62941969	    131.32250148	    101.27625225	     13.96612980	    -13.11429181	     10.53812588	    131.20327649	     88.53047669
      5.52000000	     24.24726760	     -0.31817346	      1.23985916	     -0.54738329	      0.58587714	     -0.60391375	     63.42569550	     -4.61429725	      4.80696784	     99.51208639	      1.73681355	     18.85550193	     -6.57440803	     -7.49999987	     63.79514135	     -2.92150111	      5.03771962	     99.04455921	      1.72865366	     15.29667659	    -10.97717739	     -7.49999987	    -50.98413518	     -0.05865739	     -1.92053828	     12.98818248	    -17.00917639	     13.90534328	    131.22060557	    101.37349073	     15.12258409	    -13.38151493	     10.59055334	    131.30199150	     88.67920875
      5.53000000	     23.49960598	     -0.35650359	      1.25175155	     -0.54495753	      0.58632703	     -0.60371783	     64.02890751	     -4.60369746	      4.72722753	     99.53434740	      1.73720208	     18.92836897	     -6.60177160	     -7.49999987	     64.39269116	     -2.96624075	      5.02017185	     99.01677417	      1.72816872	     15.32699416	    -10.97288408	     -7.49999987	    -51.51124428	      0.02045227	     -1.90957325	     14.19626172	    -17.17853548	     13.75267641	    131.27776738	    101.38378422	     16.45321415	    -13.48152288	     10.37624116	    131.42000997	     88.70796366
      5.54000000	     22.16796087	     -0.46559396	      1.26054910	     -0.54200490	      0.58564746	     -0.60357043	     65.31396828	     -4.52343173	      4.69745564	     99.55567532	      1.73757432	     19.03533426	     -6.64036980	     -7.49999987	     65.72954274	     -2.94340546	      5.20544324	     99.08656059	      1.72938673	     15.23492407	    -10.87935597	     -7.49999987	    -51.38789275	      0.18072459	     -1.88772348	     15.49656220	    -17.63371050	     14.34899365	    131.41133170	    101.47869476	     17.61843759	    -13.77719801	     10.64899543	    131.53637021	     88.83462113
      5.55000000	     21.24138663	     -0.47367519	      1.20398874	     -0.53934855	      0.58579650	     -0.60336075	     66.13306423	     -4.47307687	      4.72203611	     99.56408443	      1.73772109	     19.08028937	     -6.64816338	     -7.49999987	     66.52245149	     -2.98613264	      5.19447199	     99.09812126	      1.72958850	     15.28550400	    -10.89725027	     -7.49999987	    -51.79254319	      0.19934047	     -1.83932520	     16.86669276	    -17.87411515	     14.26805876	    131.47171091	    101.49139910	     18.93116006	    -14.06545499	     10.55328394	    131.67051998	     88.88176937
      5.56000000	     20.03196852	     -0.45323876	      1.18177270	     -0.53651328	      0.58574846	     -0.60329311	     67.34568247	     -4.49750987	      4.58069698	     99.72700330	      1.74056456	     18.80917996	     -6.98431515	     -7.49999987	     67.61644347	     -2.96475303	      5.17669927	     99.06984791	      1.72909504	     15.28575907	    -10.91443521	     -7.49999987	    -51.89687078	      0.17716874	     -1.91198819	     18.30218233	    -18.33118239	     14.88487039	    131.40584004	    101.53241040	     20.17538617	    -14.66007878	     11.09399875	    131.89015466	     89.03201944
